%TF.GenerationSoftware,KiCad,Pcbnew,(5.1.8)-1*%
%TF.CreationDate,2021-01-30T22:15:32+07:00*%
%TF.ProjectId,TTL232,54544c32-3332-42e6-9b69-6361645f7063,rev?*%
%TF.SameCoordinates,Original*%
%TF.FileFunction,Copper,L1,Top*%
%TF.FilePolarity,Positive*%
%FSLAX46Y46*%
G04 Gerber Fmt 4.6, Leading zero omitted, Abs format (unit mm)*
G04 Created by KiCad (PCBNEW (5.1.8)-1) date 2021-01-30 22:15:32*
%MOMM*%
%LPD*%
G01*
G04 APERTURE LIST*
%TA.AperFunction,SMDPad,CuDef*%
%ADD10R,1.750000X0.450000*%
%TD*%
%TA.AperFunction,ComponentPad*%
%ADD11O,1.350000X1.350000*%
%TD*%
%TA.AperFunction,ComponentPad*%
%ADD12R,1.350000X1.350000*%
%TD*%
%TA.AperFunction,SMDPad,CuDef*%
%ADD13R,2.499360X0.497840*%
%TD*%
%TA.AperFunction,SMDPad,CuDef*%
%ADD14R,2.499360X1.998980*%
%TD*%
%TA.AperFunction,ViaPad*%
%ADD15C,0.800000*%
%TD*%
%TA.AperFunction,Conductor*%
%ADD16C,0.250000*%
%TD*%
G04 APERTURE END LIST*
D10*
%TO.P,U1,28*%
%TO.N,Net-(U1-Pad28)*%
X151340000Y-68106000D03*
%TO.P,U1,27*%
%TO.N,Net-(U1-Pad27)*%
X151340000Y-67456000D03*
%TO.P,U1,26*%
%TO.N,GND*%
X151340000Y-66806000D03*
%TO.P,U1,25*%
X151340000Y-66156000D03*
%TO.P,U1,24*%
%TO.N,N/C*%
X151340000Y-65506000D03*
%TO.P,U1,23*%
%TO.N,Net-(R1-Pad2)*%
X151340000Y-64856000D03*
%TO.P,U1,22*%
%TO.N,Net-(R2-Pad2)*%
X151340000Y-64206000D03*
%TO.P,U1,21*%
%TO.N,GND*%
X151340000Y-63556000D03*
%TO.P,U1,20*%
%TO.N,+5V*%
X151340000Y-62906000D03*
%TO.P,U1,19*%
%TO.N,Net-(U1-Pad19)*%
X151340000Y-62256000D03*
%TO.P,U1,18*%
%TO.N,GND*%
X151340000Y-61606000D03*
%TO.P,U1,17*%
%TO.N,Net-(C3-Pad1)*%
X151340000Y-60956000D03*
%TO.P,U1,16*%
%TO.N,/USBD-*%
X151340000Y-60306000D03*
%TO.P,U1,15*%
%TO.N,/USBD+*%
X151340000Y-59656000D03*
%TO.P,U1,14*%
%TO.N,Net-(U1-Pad14)*%
X158540000Y-59656000D03*
%TO.P,U1,13*%
%TO.N,Net-(U1-Pad13)*%
X158540000Y-60306000D03*
%TO.P,U1,12*%
%TO.N,Net-(U1-Pad12)*%
X158540000Y-60956000D03*
%TO.P,U1,11*%
%TO.N,Net-(J2-Pad6)*%
X158540000Y-61606000D03*
%TO.P,U1,10*%
%TO.N,Net-(U1-Pad10)*%
X158540000Y-62256000D03*
%TO.P,U1,9*%
%TO.N,Net-(U1-Pad9)*%
X158540000Y-62906000D03*
%TO.P,U1,8*%
%TO.N,N/C*%
X158540000Y-63556000D03*
%TO.P,U1,7*%
%TO.N,GND*%
X158540000Y-64206000D03*
%TO.P,U1,6*%
%TO.N,Net-(U1-Pad6)*%
X158540000Y-64856000D03*
%TO.P,U1,5*%
%TO.N,Net-(J2-Pad4)*%
X158540000Y-65506000D03*
%TO.P,U1,4*%
%TO.N,+5V*%
X158540000Y-66156000D03*
%TO.P,U1,3*%
%TO.N,Net-(J2-Pad5)*%
X158540000Y-66806000D03*
%TO.P,U1,2*%
%TO.N,Net-(U1-Pad2)*%
X158540000Y-67456000D03*
%TO.P,U1,1*%
%TO.N,Net-(J2-Pad3)*%
X158540000Y-68106000D03*
%TD*%
%TO.P,R2,2*%
%TO.N,Net-(R2-Pad2)*%
%TA.AperFunction,SMDPad,CuDef*%
G36*
G01*
X142204001Y-60592000D02*
X141303999Y-60592000D01*
G75*
G02*
X141054000Y-60342001I0J249999D01*
G01*
X141054000Y-59816999D01*
G75*
G02*
X141303999Y-59567000I249999J0D01*
G01*
X142204001Y-59567000D01*
G75*
G02*
X142454000Y-59816999I0J-249999D01*
G01*
X142454000Y-60342001D01*
G75*
G02*
X142204001Y-60592000I-249999J0D01*
G01*
G37*
%TD.AperFunction*%
%TO.P,R2,1*%
%TO.N,Net-(D2-Pad1)*%
%TA.AperFunction,SMDPad,CuDef*%
G36*
G01*
X142204001Y-62417000D02*
X141303999Y-62417000D01*
G75*
G02*
X141054000Y-62167001I0J249999D01*
G01*
X141054000Y-61641999D01*
G75*
G02*
X141303999Y-61392000I249999J0D01*
G01*
X142204001Y-61392000D01*
G75*
G02*
X142454000Y-61641999I0J-249999D01*
G01*
X142454000Y-62167001D01*
G75*
G02*
X142204001Y-62417000I-249999J0D01*
G01*
G37*
%TD.AperFunction*%
%TD*%
%TO.P,R1,2*%
%TO.N,Net-(R1-Pad2)*%
%TA.AperFunction,SMDPad,CuDef*%
G36*
G01*
X142182001Y-64520500D02*
X141281999Y-64520500D01*
G75*
G02*
X141032000Y-64270501I0J249999D01*
G01*
X141032000Y-63745499D01*
G75*
G02*
X141281999Y-63495500I249999J0D01*
G01*
X142182001Y-63495500D01*
G75*
G02*
X142432000Y-63745499I0J-249999D01*
G01*
X142432000Y-64270501D01*
G75*
G02*
X142182001Y-64520500I-249999J0D01*
G01*
G37*
%TD.AperFunction*%
%TO.P,R1,1*%
%TO.N,Net-(D1-Pad1)*%
%TA.AperFunction,SMDPad,CuDef*%
G36*
G01*
X142182001Y-66345500D02*
X141281999Y-66345500D01*
G75*
G02*
X141032000Y-66095501I0J249999D01*
G01*
X141032000Y-65570499D01*
G75*
G02*
X141281999Y-65320500I249999J0D01*
G01*
X142182001Y-65320500D01*
G75*
G02*
X142432000Y-65570499I0J-249999D01*
G01*
X142432000Y-66095501D01*
G75*
G02*
X142182001Y-66345500I-249999J0D01*
G01*
G37*
%TD.AperFunction*%
%TD*%
D11*
%TO.P,J2,6*%
%TO.N,Net-(J2-Pad6)*%
X163068000Y-58834000D03*
%TO.P,J2,5*%
%TO.N,Net-(J2-Pad5)*%
X163068000Y-60834000D03*
%TO.P,J2,4*%
%TO.N,Net-(J2-Pad4)*%
X163068000Y-62834000D03*
%TO.P,J2,3*%
%TO.N,Net-(J2-Pad3)*%
X163068000Y-64834000D03*
%TO.P,J2,2*%
%TO.N,GND*%
X163068000Y-66834000D03*
D12*
%TO.P,J2,1*%
%TO.N,+5V*%
X163068000Y-68834000D03*
%TD*%
D13*
%TO.P,J1,3*%
%TO.N,/USBD+*%
X131658360Y-63373000D03*
%TO.P,J1,2*%
%TO.N,/USBD-*%
X131658360Y-62575440D03*
%TO.P,J1,5*%
%TO.N,GND*%
X131658360Y-64970660D03*
%TO.P,J1,4*%
%TO.N,Net-(J1-Pad4)*%
X131658360Y-64170560D03*
D14*
%TO.P,J1,SHLD*%
%TO.N,N/C*%
X126159260Y-67871340D03*
X126159260Y-58874660D03*
X131658360Y-67871340D03*
X131658360Y-58874660D03*
D13*
%TO.P,J1,1*%
%TO.N,Net-(C1-Pad1)*%
X131658360Y-61775340D03*
%TD*%
%TO.P,FB1,2*%
%TO.N,Net-(C1-Pad1)*%
%TA.AperFunction,SMDPad,CuDef*%
G36*
G01*
X138627500Y-61976250D02*
X138627500Y-61213750D01*
G75*
G02*
X138846250Y-60995000I218750J0D01*
G01*
X139283750Y-60995000D01*
G75*
G02*
X139502500Y-61213750I0J-218750D01*
G01*
X139502500Y-61976250D01*
G75*
G02*
X139283750Y-62195000I-218750J0D01*
G01*
X138846250Y-62195000D01*
G75*
G02*
X138627500Y-61976250I0J218750D01*
G01*
G37*
%TD.AperFunction*%
%TO.P,FB1,1*%
%TO.N,+5V*%
%TA.AperFunction,SMDPad,CuDef*%
G36*
G01*
X136502500Y-61976250D02*
X136502500Y-61213750D01*
G75*
G02*
X136721250Y-60995000I218750J0D01*
G01*
X137158750Y-60995000D01*
G75*
G02*
X137377500Y-61213750I0J-218750D01*
G01*
X137377500Y-61976250D01*
G75*
G02*
X137158750Y-62195000I-218750J0D01*
G01*
X136721250Y-62195000D01*
G75*
G02*
X136502500Y-61976250I0J218750D01*
G01*
G37*
%TD.AperFunction*%
%TD*%
%TO.P,D2,2*%
%TO.N,+5V*%
%TA.AperFunction,SMDPad,CuDef*%
G36*
G01*
X146379250Y-65287500D02*
X145466750Y-65287500D01*
G75*
G02*
X145223000Y-65043750I0J243750D01*
G01*
X145223000Y-64556250D01*
G75*
G02*
X145466750Y-64312500I243750J0D01*
G01*
X146379250Y-64312500D01*
G75*
G02*
X146623000Y-64556250I0J-243750D01*
G01*
X146623000Y-65043750D01*
G75*
G02*
X146379250Y-65287500I-243750J0D01*
G01*
G37*
%TD.AperFunction*%
%TO.P,D2,1*%
%TO.N,Net-(D2-Pad1)*%
%TA.AperFunction,SMDPad,CuDef*%
G36*
G01*
X146379250Y-67162500D02*
X145466750Y-67162500D01*
G75*
G02*
X145223000Y-66918750I0J243750D01*
G01*
X145223000Y-66431250D01*
G75*
G02*
X145466750Y-66187500I243750J0D01*
G01*
X146379250Y-66187500D01*
G75*
G02*
X146623000Y-66431250I0J-243750D01*
G01*
X146623000Y-66918750D01*
G75*
G02*
X146379250Y-67162500I-243750J0D01*
G01*
G37*
%TD.AperFunction*%
%TD*%
%TO.P,D1,2*%
%TO.N,+5V*%
%TA.AperFunction,SMDPad,CuDef*%
G36*
G01*
X146379250Y-60764000D02*
X145466750Y-60764000D01*
G75*
G02*
X145223000Y-60520250I0J243750D01*
G01*
X145223000Y-60032750D01*
G75*
G02*
X145466750Y-59789000I243750J0D01*
G01*
X146379250Y-59789000D01*
G75*
G02*
X146623000Y-60032750I0J-243750D01*
G01*
X146623000Y-60520250D01*
G75*
G02*
X146379250Y-60764000I-243750J0D01*
G01*
G37*
%TD.AperFunction*%
%TO.P,D1,1*%
%TO.N,Net-(D1-Pad1)*%
%TA.AperFunction,SMDPad,CuDef*%
G36*
G01*
X146379250Y-62639000D02*
X145466750Y-62639000D01*
G75*
G02*
X145223000Y-62395250I0J243750D01*
G01*
X145223000Y-61907750D01*
G75*
G02*
X145466750Y-61664000I243750J0D01*
G01*
X146379250Y-61664000D01*
G75*
G02*
X146623000Y-61907750I0J-243750D01*
G01*
X146623000Y-62395250D01*
G75*
G02*
X146379250Y-62639000I-243750J0D01*
G01*
G37*
%TD.AperFunction*%
%TD*%
%TO.P,C3,2*%
%TO.N,GND*%
%TA.AperFunction,SMDPad,CuDef*%
G36*
G01*
X138311000Y-59657000D02*
X138311000Y-58707000D01*
G75*
G02*
X138561000Y-58457000I250000J0D01*
G01*
X139061000Y-58457000D01*
G75*
G02*
X139311000Y-58707000I0J-250000D01*
G01*
X139311000Y-59657000D01*
G75*
G02*
X139061000Y-59907000I-250000J0D01*
G01*
X138561000Y-59907000D01*
G75*
G02*
X138311000Y-59657000I0J250000D01*
G01*
G37*
%TD.AperFunction*%
%TO.P,C3,1*%
%TO.N,Net-(C3-Pad1)*%
%TA.AperFunction,SMDPad,CuDef*%
G36*
G01*
X136411000Y-59657000D02*
X136411000Y-58707000D01*
G75*
G02*
X136661000Y-58457000I250000J0D01*
G01*
X137161000Y-58457000D01*
G75*
G02*
X137411000Y-58707000I0J-250000D01*
G01*
X137411000Y-59657000D01*
G75*
G02*
X137161000Y-59907000I-250000J0D01*
G01*
X136661000Y-59907000D01*
G75*
G02*
X136411000Y-59657000I0J250000D01*
G01*
G37*
%TD.AperFunction*%
%TD*%
%TO.P,C2,2*%
%TO.N,GND*%
%TA.AperFunction,SMDPad,CuDef*%
G36*
G01*
X138438000Y-64483000D02*
X138438000Y-63533000D01*
G75*
G02*
X138688000Y-63283000I250000J0D01*
G01*
X139188000Y-63283000D01*
G75*
G02*
X139438000Y-63533000I0J-250000D01*
G01*
X139438000Y-64483000D01*
G75*
G02*
X139188000Y-64733000I-250000J0D01*
G01*
X138688000Y-64733000D01*
G75*
G02*
X138438000Y-64483000I0J250000D01*
G01*
G37*
%TD.AperFunction*%
%TO.P,C2,1*%
%TO.N,Net-(C1-Pad1)*%
%TA.AperFunction,SMDPad,CuDef*%
G36*
G01*
X136538000Y-64483000D02*
X136538000Y-63533000D01*
G75*
G02*
X136788000Y-63283000I250000J0D01*
G01*
X137288000Y-63283000D01*
G75*
G02*
X137538000Y-63533000I0J-250000D01*
G01*
X137538000Y-64483000D01*
G75*
G02*
X137288000Y-64733000I-250000J0D01*
G01*
X136788000Y-64733000D01*
G75*
G02*
X136538000Y-64483000I0J250000D01*
G01*
G37*
%TD.AperFunction*%
%TD*%
%TO.P,C1,2*%
%TO.N,GND*%
%TA.AperFunction,SMDPad,CuDef*%
G36*
G01*
X138438000Y-67404000D02*
X138438000Y-66454000D01*
G75*
G02*
X138688000Y-66204000I250000J0D01*
G01*
X139188000Y-66204000D01*
G75*
G02*
X139438000Y-66454000I0J-250000D01*
G01*
X139438000Y-67404000D01*
G75*
G02*
X139188000Y-67654000I-250000J0D01*
G01*
X138688000Y-67654000D01*
G75*
G02*
X138438000Y-67404000I0J250000D01*
G01*
G37*
%TD.AperFunction*%
%TO.P,C1,1*%
%TO.N,Net-(C1-Pad1)*%
%TA.AperFunction,SMDPad,CuDef*%
G36*
G01*
X136538000Y-67404000D02*
X136538000Y-66454000D01*
G75*
G02*
X136788000Y-66204000I250000J0D01*
G01*
X137288000Y-66204000D01*
G75*
G02*
X137538000Y-66454000I0J-250000D01*
G01*
X137538000Y-67404000D01*
G75*
G02*
X137288000Y-67654000I-250000J0D01*
G01*
X136788000Y-67654000D01*
G75*
G02*
X136538000Y-67404000I0J250000D01*
G01*
G37*
%TD.AperFunction*%
%TD*%
D15*
%TO.N,+5V*%
X141643100Y-67955160D03*
X135478520Y-61749940D03*
X157271720Y-69489320D03*
X148981520Y-62906000D03*
%TO.N,Net-(J2-Pad5)*%
X160467040Y-66306418D03*
%TO.N,Net-(J2-Pad3)*%
X161131250Y-67765930D03*
%TO.N,Net-(R1-Pad2)*%
X144043400Y-67378580D03*
X140261340Y-65323720D03*
%TO.N,Net-(R2-Pad2)*%
X149232500Y-64206000D03*
X143586200Y-60822840D03*
%TD*%
D16*
%TO.N,GND*%
X131658360Y-64970660D02*
X133301740Y-64970660D01*
X133301740Y-64970660D02*
X133576060Y-65244980D01*
X133576060Y-65244980D02*
X133576060Y-66685160D01*
X133576060Y-66685160D02*
X135265160Y-68374260D01*
X135265160Y-68374260D02*
X138572240Y-68374260D01*
X138938000Y-68008500D02*
X138938000Y-66929000D01*
X138572240Y-68374260D02*
X138938000Y-68008500D01*
X138938000Y-66929000D02*
X138938000Y-64008000D01*
X138938000Y-64008000D02*
X139987020Y-62958980D01*
X139987020Y-62958980D02*
X139987020Y-59946540D01*
X139222480Y-59182000D02*
X138811000Y-59182000D01*
X139987020Y-59946540D02*
X139222480Y-59182000D01*
X158540000Y-64206000D02*
X155978740Y-64206000D01*
X155978740Y-64206000D02*
X153378740Y-61606000D01*
X159037839Y-64305999D02*
X160554219Y-64305999D01*
X158937840Y-64206000D02*
X159037839Y-64305999D01*
X158540000Y-64206000D02*
X158937840Y-64206000D01*
X160554219Y-64305999D02*
X161531300Y-65283080D01*
X161531300Y-65297300D02*
X163068000Y-66834000D01*
X161531300Y-65283080D02*
X161531300Y-65297300D01*
X138938000Y-66929000D02*
X138938000Y-67853560D01*
X138938000Y-67853560D02*
X140474700Y-69390260D01*
X146625450Y-69390260D02*
X146836270Y-69179440D01*
X140474700Y-69390260D02*
X146625450Y-69390260D01*
X146836270Y-69179440D02*
X146984720Y-69179440D01*
X150008160Y-66156000D02*
X151340000Y-66156000D01*
X146984720Y-69179440D02*
X150008160Y-66156000D01*
X151340000Y-66806000D02*
X151340000Y-66156000D01*
X153009480Y-63556000D02*
X152882600Y-63429120D01*
X152882600Y-61695740D02*
X152792860Y-61606000D01*
X152882600Y-63429120D02*
X152882600Y-61695740D01*
X152792860Y-61606000D02*
X151340000Y-61606000D01*
X153378740Y-61606000D02*
X152792860Y-61606000D01*
X152646260Y-63556000D02*
X153337140Y-63556000D01*
X151340000Y-63556000D02*
X152646260Y-63556000D01*
X152646260Y-63556000D02*
X153009480Y-63556000D01*
X153337140Y-63556000D02*
X153763980Y-63982840D01*
X153763980Y-63982840D02*
X153763980Y-65628520D01*
X153236500Y-66156000D02*
X151340000Y-66156000D01*
X153763980Y-65628520D02*
X153236500Y-66156000D01*
%TO.N,Net-(C1-Pad1)*%
X131658360Y-61775340D02*
X133360160Y-61775340D01*
X133360160Y-61775340D02*
X134632700Y-60502800D01*
X137972800Y-60502800D02*
X139065000Y-61595000D01*
X134632700Y-60502800D02*
X137972800Y-60502800D01*
X131658360Y-61775340D02*
X133944360Y-61775340D01*
X133944360Y-61775340D02*
X135900160Y-63731140D01*
X136761140Y-63731140D02*
X137038000Y-64008000D01*
X135900160Y-63731140D02*
X136761140Y-63731140D01*
X131658360Y-61775340D02*
X133022340Y-61775340D01*
X133022340Y-61775340D02*
X134211060Y-62964060D01*
X134211060Y-62964060D02*
X134211060Y-66093340D01*
X135046720Y-66929000D02*
X137038000Y-66929000D01*
X134211060Y-66093340D02*
X135046720Y-66929000D01*
%TO.N,Net-(C3-Pad1)*%
X137961010Y-58131990D02*
X140473710Y-58131990D01*
X136911000Y-59182000D02*
X137961010Y-58131990D01*
X140473710Y-58131990D02*
X140931900Y-58590180D01*
X151340000Y-60956000D02*
X148678570Y-60956000D01*
X147062480Y-59339910D02*
X143797450Y-59339910D01*
X148678570Y-60956000D02*
X147062480Y-59339910D01*
X143047720Y-58590180D02*
X140931900Y-58590180D01*
X143797450Y-59339910D02*
X143047720Y-58590180D01*
%TO.N,+5V*%
X145923000Y-60276500D02*
X147312140Y-60276500D01*
X147312140Y-60276500D02*
X147828000Y-60792360D01*
X147828000Y-60792360D02*
X147828000Y-63901320D01*
X146929320Y-64800000D02*
X145923000Y-64800000D01*
X147828000Y-63901320D02*
X146929320Y-64800000D01*
X151340000Y-62906000D02*
X148981520Y-62906000D01*
X147986200Y-63901320D02*
X147828000Y-63901320D01*
X148981520Y-62906000D02*
X148981520Y-62906000D01*
X145923000Y-64800000D02*
X144798260Y-64800000D01*
X144798260Y-64800000D02*
X141643100Y-67955160D01*
X141643100Y-67955160D02*
X141643100Y-67955160D01*
X136940000Y-61595000D02*
X135633460Y-61595000D01*
X135633460Y-61595000D02*
X135478520Y-61749940D01*
X135478520Y-61749940D02*
X135478520Y-61749940D01*
X163068000Y-70302120D02*
X163068000Y-68834000D01*
X162750500Y-70619620D02*
X163068000Y-70302120D01*
X155762960Y-70197980D02*
X156184600Y-70619620D01*
X155762960Y-66911220D02*
X155762960Y-70197980D01*
X156184600Y-70619620D02*
X162750500Y-70619620D01*
X156518180Y-66156000D02*
X155762960Y-66911220D01*
X158540000Y-66156000D02*
X156518180Y-66156000D01*
X156518180Y-66156000D02*
X156518180Y-68850080D01*
X156518180Y-68850080D02*
X157157420Y-69489320D01*
X157157420Y-69489320D02*
X157271720Y-69489320D01*
X157271720Y-69489320D02*
X157342840Y-69489320D01*
X148981520Y-62906000D02*
X147986200Y-63901320D01*
%TO.N,Net-(D1-Pad1)*%
X141732000Y-65833000D02*
X142591780Y-65833000D01*
X142591780Y-65833000D02*
X145100040Y-63324740D01*
X145100040Y-62974460D02*
X145923000Y-62151500D01*
X145100040Y-63324740D02*
X145100040Y-62974460D01*
%TO.N,Net-(D2-Pad1)*%
X139536339Y-65989149D02*
X140202920Y-66655730D01*
X139536339Y-64975719D02*
X139536339Y-65989149D01*
X139763010Y-64749048D02*
X139536339Y-64975719D01*
X139763010Y-64407990D02*
X139763010Y-64749048D01*
X141754000Y-62417000D02*
X139763010Y-64407990D01*
X141754000Y-61904500D02*
X141754000Y-62417000D01*
X140202920Y-67587982D02*
X141438778Y-68823840D01*
X140202920Y-66655730D02*
X140202920Y-67587982D01*
X141438778Y-68823840D02*
X142986760Y-68823840D01*
X142986760Y-68823840D02*
X143217900Y-68592700D01*
X143217900Y-67131078D02*
X143869558Y-66479420D01*
X143217900Y-68592700D02*
X143217900Y-67131078D01*
X145727420Y-66479420D02*
X145923000Y-66675000D01*
X143869558Y-66479420D02*
X145727420Y-66479420D01*
%TO.N,/USBD-*%
X148664980Y-60306000D02*
X151340000Y-60306000D01*
X133019800Y-60581540D02*
X135107680Y-57607200D01*
X130083679Y-61097041D02*
X130599180Y-60581540D01*
X135107680Y-57607200D02*
X144691100Y-57627520D01*
X130083679Y-62284261D02*
X130083679Y-61097041D01*
X147248880Y-58889900D02*
X148664980Y-60306000D01*
X130599180Y-60581540D02*
X133019800Y-60581540D01*
X130374858Y-62575440D02*
X130083679Y-62284261D01*
X144851120Y-58889900D02*
X147248880Y-58889900D01*
X144691100Y-57627520D02*
X144851120Y-58889900D01*
X131658360Y-62575440D02*
X130374858Y-62575440D01*
%TO.N,/USBD+*%
X148000720Y-58331100D02*
X149325620Y-59656000D01*
X144980660Y-57068720D02*
X146977100Y-57050940D01*
X130693628Y-57005220D02*
X144980660Y-57068720D01*
X129352040Y-58346808D02*
X130693628Y-57005220D01*
X129352040Y-59121040D02*
X129352040Y-58346808D01*
X146977100Y-57050940D02*
X148000720Y-58331100D01*
X127970280Y-60502800D02*
X129352040Y-59121040D01*
X127970280Y-62522100D02*
X127970280Y-60502800D01*
X149325620Y-59656000D02*
X151340000Y-59656000D01*
X128821180Y-63373000D02*
X127970280Y-62522100D01*
X131658360Y-63373000D02*
X128821180Y-63373000D01*
%TO.N,Net-(J2-Pad6)*%
X158540000Y-61606000D02*
X159869300Y-61606000D01*
X159869300Y-61606000D02*
X161472880Y-60002420D01*
X161899580Y-60002420D02*
X163068000Y-58834000D01*
X161472880Y-60002420D02*
X161899580Y-60002420D01*
%TO.N,Net-(J2-Pad5)*%
X158604179Y-66905999D02*
X159867459Y-66905999D01*
X158540000Y-66841820D02*
X158604179Y-66905999D01*
X158540000Y-66806000D02*
X158540000Y-66841820D01*
X159867459Y-66905999D02*
X160467040Y-66306418D01*
X160467040Y-66306418D02*
X160467040Y-66306418D01*
%TO.N,Net-(J2-Pad4)*%
X158540000Y-65506000D02*
X156337600Y-65506000D01*
X155094940Y-66748660D02*
X155094940Y-71124891D01*
X156337600Y-65506000D02*
X155094940Y-66748660D01*
X155094940Y-71124891D02*
X156055244Y-71129826D01*
X166614174Y-71129826D02*
X167245937Y-70498063D01*
X156055244Y-71129826D02*
X166614174Y-71129826D01*
X167245937Y-70498063D02*
X167316348Y-62616954D01*
X167316348Y-62616954D02*
X164658914Y-62616954D01*
X164441868Y-62834000D02*
X163068000Y-62834000D01*
X164658914Y-62616954D02*
X164441868Y-62834000D01*
%TO.N,Net-(J2-Pad3)*%
X158540000Y-68106000D02*
X160791180Y-68106000D01*
X160791180Y-68106000D02*
X161131250Y-67765930D01*
X161131250Y-67765930D02*
X161236660Y-67660520D01*
%TO.N,Net-(R1-Pad2)*%
X151340000Y-64856000D02*
X149563180Y-64856000D01*
X149563180Y-64856000D02*
X147655280Y-66763900D01*
X147655280Y-66763900D02*
X147655280Y-67724020D01*
X147655280Y-67724020D02*
X146867880Y-68511420D01*
X146867880Y-68511420D02*
X144675860Y-68511420D01*
X144675860Y-68511420D02*
X144043400Y-67878960D01*
X144043400Y-67878960D02*
X144043400Y-67378580D01*
X144043400Y-67378580D02*
X144043400Y-67378580D01*
X141732000Y-64008000D02*
X141229080Y-64008000D01*
X141732000Y-64008000D02*
X141056360Y-64008000D01*
X141056360Y-64008000D02*
X140261340Y-64803020D01*
X140261340Y-64803020D02*
X140261340Y-65323720D01*
X140261340Y-65323720D02*
X140261340Y-65323720D01*
%TO.N,Net-(R2-Pad2)*%
X141754000Y-60079500D02*
X143419440Y-60079500D01*
X143419440Y-60079500D02*
X143586200Y-60246260D01*
X143586200Y-60246260D02*
X143586200Y-60822840D01*
X151340000Y-64206000D02*
X149232500Y-64206000D01*
X149232500Y-64206000D02*
X149232500Y-64206000D01*
X143586200Y-60822840D02*
X143586200Y-60901580D01*
%TD*%
M02*
