%TF.GenerationSoftware,KiCad,Pcbnew,(5.1.8)-1*%
%TF.CreationDate,2021-01-30T22:15:32+07:00*%
%TF.ProjectId,TTL232,54544c32-3332-42e6-9b69-6361645f7063,rev?*%
%TF.SameCoordinates,Original*%
%TF.FileFunction,Soldermask,Top*%
%TF.FilePolarity,Negative*%
%FSLAX46Y46*%
G04 Gerber Fmt 4.6, Leading zero omitted, Abs format (unit mm)*
G04 Created by KiCad (PCBNEW (5.1.8)-1) date 2021-01-30 22:15:32*
%MOMM*%
%LPD*%
G01*
G04 APERTURE LIST*
%ADD10R,1.750000X0.450000*%
%ADD11O,1.350000X1.350000*%
%ADD12R,1.350000X1.350000*%
%ADD13C,0.899160*%
%ADD14R,2.499360X0.497840*%
%ADD15R,2.499360X1.998980*%
G04 APERTURE END LIST*
D10*
%TO.C,U1*%
X151340000Y-68106000D03*
X151340000Y-67456000D03*
X151340000Y-66806000D03*
X151340000Y-66156000D03*
X151340000Y-65506000D03*
X151340000Y-64856000D03*
X151340000Y-64206000D03*
X151340000Y-63556000D03*
X151340000Y-62906000D03*
X151340000Y-62256000D03*
X151340000Y-61606000D03*
X151340000Y-60956000D03*
X151340000Y-60306000D03*
X151340000Y-59656000D03*
X158540000Y-59656000D03*
X158540000Y-60306000D03*
X158540000Y-60956000D03*
X158540000Y-61606000D03*
X158540000Y-62256000D03*
X158540000Y-62906000D03*
X158540000Y-63556000D03*
X158540000Y-64206000D03*
X158540000Y-64856000D03*
X158540000Y-65506000D03*
X158540000Y-66156000D03*
X158540000Y-66806000D03*
X158540000Y-67456000D03*
X158540000Y-68106000D03*
%TD*%
%TO.C,R2*%
G36*
G01*
X142204001Y-60592000D02*
X141303999Y-60592000D01*
G75*
G02*
X141054000Y-60342001I0J249999D01*
G01*
X141054000Y-59816999D01*
G75*
G02*
X141303999Y-59567000I249999J0D01*
G01*
X142204001Y-59567000D01*
G75*
G02*
X142454000Y-59816999I0J-249999D01*
G01*
X142454000Y-60342001D01*
G75*
G02*
X142204001Y-60592000I-249999J0D01*
G01*
G37*
G36*
G01*
X142204001Y-62417000D02*
X141303999Y-62417000D01*
G75*
G02*
X141054000Y-62167001I0J249999D01*
G01*
X141054000Y-61641999D01*
G75*
G02*
X141303999Y-61392000I249999J0D01*
G01*
X142204001Y-61392000D01*
G75*
G02*
X142454000Y-61641999I0J-249999D01*
G01*
X142454000Y-62167001D01*
G75*
G02*
X142204001Y-62417000I-249999J0D01*
G01*
G37*
%TD*%
%TO.C,R1*%
G36*
G01*
X142182001Y-64520500D02*
X141281999Y-64520500D01*
G75*
G02*
X141032000Y-64270501I0J249999D01*
G01*
X141032000Y-63745499D01*
G75*
G02*
X141281999Y-63495500I249999J0D01*
G01*
X142182001Y-63495500D01*
G75*
G02*
X142432000Y-63745499I0J-249999D01*
G01*
X142432000Y-64270501D01*
G75*
G02*
X142182001Y-64520500I-249999J0D01*
G01*
G37*
G36*
G01*
X142182001Y-66345500D02*
X141281999Y-66345500D01*
G75*
G02*
X141032000Y-66095501I0J249999D01*
G01*
X141032000Y-65570499D01*
G75*
G02*
X141281999Y-65320500I249999J0D01*
G01*
X142182001Y-65320500D01*
G75*
G02*
X142432000Y-65570499I0J-249999D01*
G01*
X142432000Y-66095501D01*
G75*
G02*
X142182001Y-66345500I-249999J0D01*
G01*
G37*
%TD*%
D11*
%TO.C,J2*%
X163068000Y-58834000D03*
X163068000Y-60834000D03*
X163068000Y-62834000D03*
X163068000Y-64834000D03*
X163068000Y-66834000D03*
D12*
X163068000Y-68834000D03*
%TD*%
D13*
%TO.C,J1*%
X129159000Y-61173360D03*
X129159000Y-65572640D03*
D14*
X131658360Y-63373000D03*
X131658360Y-62575440D03*
X131658360Y-64970660D03*
X131658360Y-64170560D03*
D15*
X126159260Y-67871340D03*
X126159260Y-58874660D03*
X131658360Y-67871340D03*
X131658360Y-58874660D03*
D14*
X131658360Y-61775340D03*
%TD*%
%TO.C,FB1*%
G36*
G01*
X138627500Y-61976250D02*
X138627500Y-61213750D01*
G75*
G02*
X138846250Y-60995000I218750J0D01*
G01*
X139283750Y-60995000D01*
G75*
G02*
X139502500Y-61213750I0J-218750D01*
G01*
X139502500Y-61976250D01*
G75*
G02*
X139283750Y-62195000I-218750J0D01*
G01*
X138846250Y-62195000D01*
G75*
G02*
X138627500Y-61976250I0J218750D01*
G01*
G37*
G36*
G01*
X136502500Y-61976250D02*
X136502500Y-61213750D01*
G75*
G02*
X136721250Y-60995000I218750J0D01*
G01*
X137158750Y-60995000D01*
G75*
G02*
X137377500Y-61213750I0J-218750D01*
G01*
X137377500Y-61976250D01*
G75*
G02*
X137158750Y-62195000I-218750J0D01*
G01*
X136721250Y-62195000D01*
G75*
G02*
X136502500Y-61976250I0J218750D01*
G01*
G37*
%TD*%
%TO.C,D2*%
G36*
G01*
X146379250Y-65287500D02*
X145466750Y-65287500D01*
G75*
G02*
X145223000Y-65043750I0J243750D01*
G01*
X145223000Y-64556250D01*
G75*
G02*
X145466750Y-64312500I243750J0D01*
G01*
X146379250Y-64312500D01*
G75*
G02*
X146623000Y-64556250I0J-243750D01*
G01*
X146623000Y-65043750D01*
G75*
G02*
X146379250Y-65287500I-243750J0D01*
G01*
G37*
G36*
G01*
X146379250Y-67162500D02*
X145466750Y-67162500D01*
G75*
G02*
X145223000Y-66918750I0J243750D01*
G01*
X145223000Y-66431250D01*
G75*
G02*
X145466750Y-66187500I243750J0D01*
G01*
X146379250Y-66187500D01*
G75*
G02*
X146623000Y-66431250I0J-243750D01*
G01*
X146623000Y-66918750D01*
G75*
G02*
X146379250Y-67162500I-243750J0D01*
G01*
G37*
%TD*%
%TO.C,D1*%
G36*
G01*
X146379250Y-60764000D02*
X145466750Y-60764000D01*
G75*
G02*
X145223000Y-60520250I0J243750D01*
G01*
X145223000Y-60032750D01*
G75*
G02*
X145466750Y-59789000I243750J0D01*
G01*
X146379250Y-59789000D01*
G75*
G02*
X146623000Y-60032750I0J-243750D01*
G01*
X146623000Y-60520250D01*
G75*
G02*
X146379250Y-60764000I-243750J0D01*
G01*
G37*
G36*
G01*
X146379250Y-62639000D02*
X145466750Y-62639000D01*
G75*
G02*
X145223000Y-62395250I0J243750D01*
G01*
X145223000Y-61907750D01*
G75*
G02*
X145466750Y-61664000I243750J0D01*
G01*
X146379250Y-61664000D01*
G75*
G02*
X146623000Y-61907750I0J-243750D01*
G01*
X146623000Y-62395250D01*
G75*
G02*
X146379250Y-62639000I-243750J0D01*
G01*
G37*
%TD*%
%TO.C,C3*%
G36*
G01*
X138311000Y-59657000D02*
X138311000Y-58707000D01*
G75*
G02*
X138561000Y-58457000I250000J0D01*
G01*
X139061000Y-58457000D01*
G75*
G02*
X139311000Y-58707000I0J-250000D01*
G01*
X139311000Y-59657000D01*
G75*
G02*
X139061000Y-59907000I-250000J0D01*
G01*
X138561000Y-59907000D01*
G75*
G02*
X138311000Y-59657000I0J250000D01*
G01*
G37*
G36*
G01*
X136411000Y-59657000D02*
X136411000Y-58707000D01*
G75*
G02*
X136661000Y-58457000I250000J0D01*
G01*
X137161000Y-58457000D01*
G75*
G02*
X137411000Y-58707000I0J-250000D01*
G01*
X137411000Y-59657000D01*
G75*
G02*
X137161000Y-59907000I-250000J0D01*
G01*
X136661000Y-59907000D01*
G75*
G02*
X136411000Y-59657000I0J250000D01*
G01*
G37*
%TD*%
%TO.C,C2*%
G36*
G01*
X138438000Y-64483000D02*
X138438000Y-63533000D01*
G75*
G02*
X138688000Y-63283000I250000J0D01*
G01*
X139188000Y-63283000D01*
G75*
G02*
X139438000Y-63533000I0J-250000D01*
G01*
X139438000Y-64483000D01*
G75*
G02*
X139188000Y-64733000I-250000J0D01*
G01*
X138688000Y-64733000D01*
G75*
G02*
X138438000Y-64483000I0J250000D01*
G01*
G37*
G36*
G01*
X136538000Y-64483000D02*
X136538000Y-63533000D01*
G75*
G02*
X136788000Y-63283000I250000J0D01*
G01*
X137288000Y-63283000D01*
G75*
G02*
X137538000Y-63533000I0J-250000D01*
G01*
X137538000Y-64483000D01*
G75*
G02*
X137288000Y-64733000I-250000J0D01*
G01*
X136788000Y-64733000D01*
G75*
G02*
X136538000Y-64483000I0J250000D01*
G01*
G37*
%TD*%
%TO.C,C1*%
G36*
G01*
X138438000Y-67404000D02*
X138438000Y-66454000D01*
G75*
G02*
X138688000Y-66204000I250000J0D01*
G01*
X139188000Y-66204000D01*
G75*
G02*
X139438000Y-66454000I0J-250000D01*
G01*
X139438000Y-67404000D01*
G75*
G02*
X139188000Y-67654000I-250000J0D01*
G01*
X138688000Y-67654000D01*
G75*
G02*
X138438000Y-67404000I0J250000D01*
G01*
G37*
G36*
G01*
X136538000Y-67404000D02*
X136538000Y-66454000D01*
G75*
G02*
X136788000Y-66204000I250000J0D01*
G01*
X137288000Y-66204000D01*
G75*
G02*
X137538000Y-66454000I0J-250000D01*
G01*
X137538000Y-67404000D01*
G75*
G02*
X137288000Y-67654000I-250000J0D01*
G01*
X136788000Y-67654000D01*
G75*
G02*
X136538000Y-67404000I0J250000D01*
G01*
G37*
%TD*%
M02*
