%TF.GenerationSoftware,KiCad,Pcbnew,(5.1.8)-1*%
%TF.CreationDate,2021-01-30T22:15:32+07:00*%
%TF.ProjectId,TTL232,54544c32-3332-42e6-9b69-6361645f7063,rev?*%
%TF.SameCoordinates,Original*%
%TF.FileFunction,Copper,L2,Bot*%
%TF.FilePolarity,Positive*%
%FSLAX46Y46*%
G04 Gerber Fmt 4.6, Leading zero omitted, Abs format (unit mm)*
G04 Created by KiCad (PCBNEW (5.1.8)-1) date 2021-01-30 22:15:32*
%MOMM*%
%LPD*%
G01*
G04 APERTURE LIST*
%TA.AperFunction,ComponentPad*%
%ADD10O,1.350000X1.350000*%
%TD*%
%TA.AperFunction,ComponentPad*%
%ADD11R,1.350000X1.350000*%
%TD*%
%TA.AperFunction,ViaPad*%
%ADD12C,0.800000*%
%TD*%
%TA.AperFunction,Conductor*%
%ADD13C,0.250000*%
%TD*%
%TA.AperFunction,Conductor*%
%ADD14C,0.254000*%
%TD*%
%TA.AperFunction,Conductor*%
%ADD15C,0.100000*%
%TD*%
G04 APERTURE END LIST*
D10*
%TO.P,J2,6*%
%TO.N,Net-(J2-Pad6)*%
X163068000Y-58834000D03*
%TO.P,J2,5*%
%TO.N,Net-(J2-Pad5)*%
X163068000Y-60834000D03*
%TO.P,J2,4*%
%TO.N,Net-(J2-Pad4)*%
X163068000Y-62834000D03*
%TO.P,J2,3*%
%TO.N,Net-(J2-Pad3)*%
X163068000Y-64834000D03*
%TO.P,J2,2*%
%TO.N,GND*%
X163068000Y-66834000D03*
D11*
%TO.P,J2,1*%
%TO.N,+5V*%
X163068000Y-68834000D03*
%TD*%
D12*
%TO.N,+5V*%
X141643100Y-67955160D03*
X135478520Y-61749940D03*
X157271720Y-69489320D03*
X148981520Y-62906000D03*
%TO.N,Net-(J2-Pad5)*%
X160467040Y-66306418D03*
%TO.N,Net-(J2-Pad3)*%
X161131250Y-67765930D03*
%TO.N,Net-(R1-Pad2)*%
X144043400Y-67378580D03*
X140261340Y-65323720D03*
%TO.N,Net-(R2-Pad2)*%
X149232500Y-64206000D03*
X143586200Y-60822840D03*
%TD*%
D13*
%TO.N,+5V*%
X135478520Y-61749940D02*
X134785100Y-62443360D01*
X134785100Y-62443360D02*
X134785100Y-67856100D01*
X134785100Y-67856100D02*
X135478520Y-68549520D01*
X141048740Y-68549520D02*
X141643100Y-67955160D01*
X135478520Y-68549520D02*
X141048740Y-68549520D01*
X148981520Y-62906000D02*
X154676200Y-62906000D01*
X154676200Y-62906000D02*
X156603700Y-64833500D01*
X156603700Y-68821300D02*
X157271720Y-69489320D01*
X156603700Y-64833500D02*
X156603700Y-68821300D01*
%TO.N,Net-(J2-Pad5)*%
X160467040Y-66306418D02*
X160467040Y-62649100D01*
X162282140Y-60834000D02*
X163068000Y-60834000D01*
X160467040Y-62649100D02*
X162282140Y-60834000D01*
%TO.N,Net-(J2-Pad3)*%
X161131250Y-67765930D02*
X161599880Y-67297300D01*
X161599880Y-66302120D02*
X163068000Y-64834000D01*
X161599880Y-67297300D02*
X161599880Y-66302120D01*
%TO.N,Net-(R1-Pad2)*%
X140261340Y-65323720D02*
X140261340Y-66187320D01*
X140261340Y-66187320D02*
X141279880Y-67205860D01*
X143870680Y-67205860D02*
X144043400Y-67378580D01*
X141279880Y-67205860D02*
X143870680Y-67205860D01*
%TO.N,Net-(R2-Pad2)*%
X143586200Y-60822840D02*
X143586200Y-62438280D01*
X143586200Y-62438280D02*
X144833340Y-63685420D01*
X148711920Y-63685420D02*
X149232500Y-64206000D01*
X144833340Y-63685420D02*
X148711920Y-63685420D01*
%TD*%
D14*
%TO.N,GND*%
X167501666Y-71496633D02*
X122326000Y-70994681D01*
X122326000Y-65465818D01*
X128074420Y-65465818D01*
X128074420Y-65679462D01*
X128116100Y-65889000D01*
X128197858Y-66086381D01*
X128316552Y-66264020D01*
X128467620Y-66415088D01*
X128645259Y-66533782D01*
X128842640Y-66615540D01*
X129052178Y-66657220D01*
X129265822Y-66657220D01*
X129475360Y-66615540D01*
X129672741Y-66533782D01*
X129850380Y-66415088D01*
X130001448Y-66264020D01*
X130120142Y-66086381D01*
X130201900Y-65889000D01*
X130243580Y-65679462D01*
X130243580Y-65465818D01*
X130201900Y-65256280D01*
X130120142Y-65058899D01*
X130001448Y-64881260D01*
X129850380Y-64730192D01*
X129672741Y-64611498D01*
X129475360Y-64529740D01*
X129265822Y-64488060D01*
X129052178Y-64488060D01*
X128842640Y-64529740D01*
X128645259Y-64611498D01*
X128467620Y-64730192D01*
X128316552Y-64881260D01*
X128197858Y-65058899D01*
X128116100Y-65256280D01*
X128074420Y-65465818D01*
X122326000Y-65465818D01*
X122326000Y-62443360D01*
X134021424Y-62443360D01*
X134025100Y-62480683D01*
X134025101Y-67818768D01*
X134021424Y-67856100D01*
X134025101Y-67893433D01*
X134036098Y-68005086D01*
X134038667Y-68013554D01*
X134079554Y-68148346D01*
X134150126Y-68280376D01*
X134221301Y-68367102D01*
X134245100Y-68396101D01*
X134274098Y-68419899D01*
X134914721Y-69060522D01*
X134938519Y-69089521D01*
X134967517Y-69113319D01*
X135054243Y-69184494D01*
X135168519Y-69245576D01*
X135186273Y-69255066D01*
X135329534Y-69298523D01*
X135441187Y-69309520D01*
X135441197Y-69309520D01*
X135478520Y-69313196D01*
X135515843Y-69309520D01*
X141011418Y-69309520D01*
X141048740Y-69313196D01*
X141086062Y-69309520D01*
X141086073Y-69309520D01*
X141197726Y-69298523D01*
X141340987Y-69255066D01*
X141473016Y-69184494D01*
X141588741Y-69089521D01*
X141612543Y-69060518D01*
X141682901Y-68990160D01*
X141745039Y-68990160D01*
X141944998Y-68950386D01*
X142133356Y-68872365D01*
X142302874Y-68759097D01*
X142447037Y-68614934D01*
X142560305Y-68445416D01*
X142638326Y-68257058D01*
X142678100Y-68057099D01*
X142678100Y-67965860D01*
X143191024Y-67965860D01*
X143239463Y-68038354D01*
X143383626Y-68182517D01*
X143553144Y-68295785D01*
X143741502Y-68373806D01*
X143941461Y-68413580D01*
X144145339Y-68413580D01*
X144345298Y-68373806D01*
X144533656Y-68295785D01*
X144703174Y-68182517D01*
X144847337Y-68038354D01*
X144960605Y-67868836D01*
X145038626Y-67680478D01*
X145078400Y-67480519D01*
X145078400Y-67276641D01*
X145038626Y-67076682D01*
X144960605Y-66888324D01*
X144847337Y-66718806D01*
X144703174Y-66574643D01*
X144533656Y-66461375D01*
X144345298Y-66383354D01*
X144145339Y-66343580D01*
X143941461Y-66343580D01*
X143741502Y-66383354D01*
X143590600Y-66445860D01*
X141594682Y-66445860D01*
X141092129Y-65943307D01*
X141178545Y-65813976D01*
X141256566Y-65625618D01*
X141296340Y-65425659D01*
X141296340Y-65221781D01*
X141256566Y-65021822D01*
X141178545Y-64833464D01*
X141065277Y-64663946D01*
X140921114Y-64519783D01*
X140751596Y-64406515D01*
X140563238Y-64328494D01*
X140363279Y-64288720D01*
X140159401Y-64288720D01*
X139959442Y-64328494D01*
X139771084Y-64406515D01*
X139601566Y-64519783D01*
X139457403Y-64663946D01*
X139344135Y-64833464D01*
X139266114Y-65021822D01*
X139226340Y-65221781D01*
X139226340Y-65425659D01*
X139266114Y-65625618D01*
X139344135Y-65813976D01*
X139457403Y-65983494D01*
X139501340Y-66027431D01*
X139501340Y-66149998D01*
X139497664Y-66187320D01*
X139501340Y-66224642D01*
X139501340Y-66224653D01*
X139512338Y-66336306D01*
X139519137Y-66358720D01*
X139555794Y-66479566D01*
X139626366Y-66611596D01*
X139668000Y-66662326D01*
X139721340Y-66727321D01*
X139750338Y-66751119D01*
X140649223Y-67650005D01*
X140647874Y-67653262D01*
X140620771Y-67789520D01*
X135793322Y-67789520D01*
X135545100Y-67541299D01*
X135545100Y-62784940D01*
X135580459Y-62784940D01*
X135780418Y-62745166D01*
X135968776Y-62667145D01*
X136138294Y-62553877D01*
X136282457Y-62409714D01*
X136395725Y-62240196D01*
X136473746Y-62051838D01*
X136513520Y-61851879D01*
X136513520Y-61648001D01*
X136473746Y-61448042D01*
X136395725Y-61259684D01*
X136282457Y-61090166D01*
X136138294Y-60946003D01*
X135968776Y-60832735D01*
X135780418Y-60754714D01*
X135610428Y-60720901D01*
X142551200Y-60720901D01*
X142551200Y-60924779D01*
X142590974Y-61124738D01*
X142668995Y-61313096D01*
X142782263Y-61482614D01*
X142826200Y-61526551D01*
X142826201Y-62400948D01*
X142822524Y-62438280D01*
X142826201Y-62475613D01*
X142833910Y-62553877D01*
X142837198Y-62587265D01*
X142880654Y-62730526D01*
X142951226Y-62862556D01*
X142999801Y-62921744D01*
X143046200Y-62978281D01*
X143075198Y-63002079D01*
X144269540Y-64196422D01*
X144293339Y-64225421D01*
X144409064Y-64320394D01*
X144541093Y-64390966D01*
X144684354Y-64434423D01*
X144796007Y-64445420D01*
X144796016Y-64445420D01*
X144833339Y-64449096D01*
X144870662Y-64445420D01*
X148224846Y-64445420D01*
X148237274Y-64507898D01*
X148315295Y-64696256D01*
X148428563Y-64865774D01*
X148572726Y-65009937D01*
X148742244Y-65123205D01*
X148930602Y-65201226D01*
X149130561Y-65241000D01*
X149334439Y-65241000D01*
X149534398Y-65201226D01*
X149722756Y-65123205D01*
X149892274Y-65009937D01*
X150036437Y-64865774D01*
X150149705Y-64696256D01*
X150227726Y-64507898D01*
X150267500Y-64307939D01*
X150267500Y-64104061D01*
X150227726Y-63904102D01*
X150149705Y-63715744D01*
X150116467Y-63666000D01*
X154361399Y-63666000D01*
X155843700Y-65148302D01*
X155843701Y-68783968D01*
X155840024Y-68821300D01*
X155854698Y-68970285D01*
X155898154Y-69113546D01*
X155968726Y-69245576D01*
X156012179Y-69298523D01*
X156063700Y-69361301D01*
X156092698Y-69385099D01*
X156236720Y-69529121D01*
X156236720Y-69591259D01*
X156276494Y-69791218D01*
X156354515Y-69979576D01*
X156467783Y-70149094D01*
X156611946Y-70293257D01*
X156781464Y-70406525D01*
X156969822Y-70484546D01*
X157169781Y-70524320D01*
X157373659Y-70524320D01*
X157573618Y-70484546D01*
X157761976Y-70406525D01*
X157931494Y-70293257D01*
X158075657Y-70149094D01*
X158188925Y-69979576D01*
X158266946Y-69791218D01*
X158306720Y-69591259D01*
X158306720Y-69387381D01*
X158266946Y-69187422D01*
X158188925Y-68999064D01*
X158075657Y-68829546D01*
X157931494Y-68685383D01*
X157761976Y-68572115D01*
X157573618Y-68494094D01*
X157373659Y-68454320D01*
X157363700Y-68454320D01*
X157363700Y-66204479D01*
X159432040Y-66204479D01*
X159432040Y-66408357D01*
X159471814Y-66608316D01*
X159549835Y-66796674D01*
X159663103Y-66966192D01*
X159807266Y-67110355D01*
X159976784Y-67223623D01*
X160165142Y-67301644D01*
X160200384Y-67308654D01*
X160136024Y-67464032D01*
X160096250Y-67663991D01*
X160096250Y-67867869D01*
X160136024Y-68067828D01*
X160214045Y-68256186D01*
X160327313Y-68425704D01*
X160471476Y-68569867D01*
X160640994Y-68683135D01*
X160829352Y-68761156D01*
X161029311Y-68800930D01*
X161233189Y-68800930D01*
X161433148Y-68761156D01*
X161621506Y-68683135D01*
X161754928Y-68593986D01*
X161754928Y-69509000D01*
X161767188Y-69633482D01*
X161803498Y-69753180D01*
X161862463Y-69863494D01*
X161941815Y-69960185D01*
X162038506Y-70039537D01*
X162148820Y-70098502D01*
X162268518Y-70134812D01*
X162393000Y-70147072D01*
X163743000Y-70147072D01*
X163867482Y-70134812D01*
X163987180Y-70098502D01*
X164097494Y-70039537D01*
X164194185Y-69960185D01*
X164273537Y-69863494D01*
X164332502Y-69753180D01*
X164368812Y-69633482D01*
X164381072Y-69509000D01*
X164381072Y-68159000D01*
X164368812Y-68034518D01*
X164332502Y-67914820D01*
X164273537Y-67804506D01*
X164194185Y-67707815D01*
X164100441Y-67630881D01*
X164197473Y-67497629D01*
X164305238Y-67264528D01*
X164335910Y-67163400D01*
X164212224Y-66961000D01*
X163195000Y-66961000D01*
X163195000Y-66981000D01*
X162941000Y-66981000D01*
X162941000Y-66961000D01*
X162921000Y-66961000D01*
X162921000Y-66707000D01*
X162941000Y-66707000D01*
X162941000Y-66687000D01*
X163195000Y-66687000D01*
X163195000Y-66707000D01*
X164212224Y-66707000D01*
X164335910Y-66504600D01*
X164305238Y-66403472D01*
X164197473Y-66170371D01*
X164046303Y-65962773D01*
X163913940Y-65840681D01*
X164085544Y-65669077D01*
X164228907Y-65454518D01*
X164327658Y-65216113D01*
X164378000Y-64963024D01*
X164378000Y-64704976D01*
X164327658Y-64451887D01*
X164228907Y-64213482D01*
X164085544Y-63998923D01*
X163920621Y-63834000D01*
X164085544Y-63669077D01*
X164228907Y-63454518D01*
X164327658Y-63216113D01*
X164378000Y-62963024D01*
X164378000Y-62704976D01*
X164327658Y-62451887D01*
X164228907Y-62213482D01*
X164085544Y-61998923D01*
X163920621Y-61834000D01*
X164085544Y-61669077D01*
X164228907Y-61454518D01*
X164327658Y-61216113D01*
X164378000Y-60963024D01*
X164378000Y-60704976D01*
X164327658Y-60451887D01*
X164228907Y-60213482D01*
X164085544Y-59998923D01*
X163920621Y-59834000D01*
X164085544Y-59669077D01*
X164228907Y-59454518D01*
X164327658Y-59216113D01*
X164378000Y-58963024D01*
X164378000Y-58704976D01*
X164327658Y-58451887D01*
X164228907Y-58213482D01*
X164085544Y-57998923D01*
X163903077Y-57816456D01*
X163688518Y-57673093D01*
X163450113Y-57574342D01*
X163197024Y-57524000D01*
X162938976Y-57524000D01*
X162685887Y-57574342D01*
X162447482Y-57673093D01*
X162232923Y-57816456D01*
X162050456Y-57998923D01*
X161907093Y-58213482D01*
X161808342Y-58451887D01*
X161758000Y-58704976D01*
X161758000Y-58963024D01*
X161808342Y-59216113D01*
X161907093Y-59454518D01*
X162050456Y-59669077D01*
X162215379Y-59834000D01*
X162050456Y-59998923D01*
X161949469Y-60150061D01*
X161857863Y-60199026D01*
X161841789Y-60212218D01*
X161742139Y-60293999D01*
X161718341Y-60322997D01*
X159956038Y-62085301D01*
X159927040Y-62109099D01*
X159903242Y-62138097D01*
X159903241Y-62138098D01*
X159832066Y-62224824D01*
X159761494Y-62356854D01*
X159746578Y-62406027D01*
X159723617Y-62481724D01*
X159718038Y-62500115D01*
X159703364Y-62649100D01*
X159707041Y-62686432D01*
X159707040Y-65602707D01*
X159663103Y-65646644D01*
X159549835Y-65816162D01*
X159471814Y-66004520D01*
X159432040Y-66204479D01*
X157363700Y-66204479D01*
X157363700Y-64870825D01*
X157367376Y-64833500D01*
X157363700Y-64796175D01*
X157363700Y-64796167D01*
X157352703Y-64684514D01*
X157309246Y-64541253D01*
X157238674Y-64409224D01*
X157143701Y-64293499D01*
X157114704Y-64269702D01*
X155240004Y-62395003D01*
X155216201Y-62365999D01*
X155100476Y-62271026D01*
X154968447Y-62200454D01*
X154825186Y-62156997D01*
X154713533Y-62146000D01*
X154713522Y-62146000D01*
X154676200Y-62142324D01*
X154638878Y-62146000D01*
X149685231Y-62146000D01*
X149641294Y-62102063D01*
X149471776Y-61988795D01*
X149283418Y-61910774D01*
X149083459Y-61871000D01*
X148879581Y-61871000D01*
X148679622Y-61910774D01*
X148491264Y-61988795D01*
X148321746Y-62102063D01*
X148177583Y-62246226D01*
X148064315Y-62415744D01*
X147986294Y-62604102D01*
X147946520Y-62804061D01*
X147946520Y-62925420D01*
X145148142Y-62925420D01*
X144346200Y-62123479D01*
X144346200Y-61526551D01*
X144390137Y-61482614D01*
X144503405Y-61313096D01*
X144581426Y-61124738D01*
X144621200Y-60924779D01*
X144621200Y-60720901D01*
X144581426Y-60520942D01*
X144503405Y-60332584D01*
X144390137Y-60163066D01*
X144245974Y-60018903D01*
X144076456Y-59905635D01*
X143888098Y-59827614D01*
X143688139Y-59787840D01*
X143484261Y-59787840D01*
X143284302Y-59827614D01*
X143095944Y-59905635D01*
X142926426Y-60018903D01*
X142782263Y-60163066D01*
X142668995Y-60332584D01*
X142590974Y-60520942D01*
X142551200Y-60720901D01*
X135610428Y-60720901D01*
X135580459Y-60714940D01*
X135376581Y-60714940D01*
X135176622Y-60754714D01*
X134988264Y-60832735D01*
X134818746Y-60946003D01*
X134674583Y-61090166D01*
X134561315Y-61259684D01*
X134483294Y-61448042D01*
X134443520Y-61648001D01*
X134443520Y-61710139D01*
X134274102Y-61879557D01*
X134245099Y-61903359D01*
X134189971Y-61970534D01*
X134150126Y-62019084D01*
X134102012Y-62109099D01*
X134079554Y-62151114D01*
X134036097Y-62294375D01*
X134025100Y-62406028D01*
X134025100Y-62406038D01*
X134021424Y-62443360D01*
X122326000Y-62443360D01*
X122326000Y-61066538D01*
X128074420Y-61066538D01*
X128074420Y-61280182D01*
X128116100Y-61489720D01*
X128197858Y-61687101D01*
X128316552Y-61864740D01*
X128467620Y-62015808D01*
X128645259Y-62134502D01*
X128842640Y-62216260D01*
X129052178Y-62257940D01*
X129265822Y-62257940D01*
X129475360Y-62216260D01*
X129672741Y-62134502D01*
X129850380Y-62015808D01*
X130001448Y-61864740D01*
X130120142Y-61687101D01*
X130201900Y-61489720D01*
X130243580Y-61280182D01*
X130243580Y-61066538D01*
X130201900Y-60857000D01*
X130120142Y-60659619D01*
X130001448Y-60481980D01*
X129850380Y-60330912D01*
X129672741Y-60212218D01*
X129475360Y-60130460D01*
X129265822Y-60088780D01*
X129052178Y-60088780D01*
X128842640Y-60130460D01*
X128645259Y-60212218D01*
X128467620Y-60330912D01*
X128316552Y-60481980D01*
X128197858Y-60659619D01*
X128116100Y-60857000D01*
X128074420Y-61066538D01*
X122326000Y-61066538D01*
X122326000Y-56540000D01*
X167731768Y-56540000D01*
X167501666Y-71496633D01*
%TA.AperFunction,Conductor*%
D15*
G36*
X167501666Y-71496633D02*
G01*
X122326000Y-70994681D01*
X122326000Y-65465818D01*
X128074420Y-65465818D01*
X128074420Y-65679462D01*
X128116100Y-65889000D01*
X128197858Y-66086381D01*
X128316552Y-66264020D01*
X128467620Y-66415088D01*
X128645259Y-66533782D01*
X128842640Y-66615540D01*
X129052178Y-66657220D01*
X129265822Y-66657220D01*
X129475360Y-66615540D01*
X129672741Y-66533782D01*
X129850380Y-66415088D01*
X130001448Y-66264020D01*
X130120142Y-66086381D01*
X130201900Y-65889000D01*
X130243580Y-65679462D01*
X130243580Y-65465818D01*
X130201900Y-65256280D01*
X130120142Y-65058899D01*
X130001448Y-64881260D01*
X129850380Y-64730192D01*
X129672741Y-64611498D01*
X129475360Y-64529740D01*
X129265822Y-64488060D01*
X129052178Y-64488060D01*
X128842640Y-64529740D01*
X128645259Y-64611498D01*
X128467620Y-64730192D01*
X128316552Y-64881260D01*
X128197858Y-65058899D01*
X128116100Y-65256280D01*
X128074420Y-65465818D01*
X122326000Y-65465818D01*
X122326000Y-62443360D01*
X134021424Y-62443360D01*
X134025100Y-62480683D01*
X134025101Y-67818768D01*
X134021424Y-67856100D01*
X134025101Y-67893433D01*
X134036098Y-68005086D01*
X134038667Y-68013554D01*
X134079554Y-68148346D01*
X134150126Y-68280376D01*
X134221301Y-68367102D01*
X134245100Y-68396101D01*
X134274098Y-68419899D01*
X134914721Y-69060522D01*
X134938519Y-69089521D01*
X134967517Y-69113319D01*
X135054243Y-69184494D01*
X135168519Y-69245576D01*
X135186273Y-69255066D01*
X135329534Y-69298523D01*
X135441187Y-69309520D01*
X135441197Y-69309520D01*
X135478520Y-69313196D01*
X135515843Y-69309520D01*
X141011418Y-69309520D01*
X141048740Y-69313196D01*
X141086062Y-69309520D01*
X141086073Y-69309520D01*
X141197726Y-69298523D01*
X141340987Y-69255066D01*
X141473016Y-69184494D01*
X141588741Y-69089521D01*
X141612543Y-69060518D01*
X141682901Y-68990160D01*
X141745039Y-68990160D01*
X141944998Y-68950386D01*
X142133356Y-68872365D01*
X142302874Y-68759097D01*
X142447037Y-68614934D01*
X142560305Y-68445416D01*
X142638326Y-68257058D01*
X142678100Y-68057099D01*
X142678100Y-67965860D01*
X143191024Y-67965860D01*
X143239463Y-68038354D01*
X143383626Y-68182517D01*
X143553144Y-68295785D01*
X143741502Y-68373806D01*
X143941461Y-68413580D01*
X144145339Y-68413580D01*
X144345298Y-68373806D01*
X144533656Y-68295785D01*
X144703174Y-68182517D01*
X144847337Y-68038354D01*
X144960605Y-67868836D01*
X145038626Y-67680478D01*
X145078400Y-67480519D01*
X145078400Y-67276641D01*
X145038626Y-67076682D01*
X144960605Y-66888324D01*
X144847337Y-66718806D01*
X144703174Y-66574643D01*
X144533656Y-66461375D01*
X144345298Y-66383354D01*
X144145339Y-66343580D01*
X143941461Y-66343580D01*
X143741502Y-66383354D01*
X143590600Y-66445860D01*
X141594682Y-66445860D01*
X141092129Y-65943307D01*
X141178545Y-65813976D01*
X141256566Y-65625618D01*
X141296340Y-65425659D01*
X141296340Y-65221781D01*
X141256566Y-65021822D01*
X141178545Y-64833464D01*
X141065277Y-64663946D01*
X140921114Y-64519783D01*
X140751596Y-64406515D01*
X140563238Y-64328494D01*
X140363279Y-64288720D01*
X140159401Y-64288720D01*
X139959442Y-64328494D01*
X139771084Y-64406515D01*
X139601566Y-64519783D01*
X139457403Y-64663946D01*
X139344135Y-64833464D01*
X139266114Y-65021822D01*
X139226340Y-65221781D01*
X139226340Y-65425659D01*
X139266114Y-65625618D01*
X139344135Y-65813976D01*
X139457403Y-65983494D01*
X139501340Y-66027431D01*
X139501340Y-66149998D01*
X139497664Y-66187320D01*
X139501340Y-66224642D01*
X139501340Y-66224653D01*
X139512338Y-66336306D01*
X139519137Y-66358720D01*
X139555794Y-66479566D01*
X139626366Y-66611596D01*
X139668000Y-66662326D01*
X139721340Y-66727321D01*
X139750338Y-66751119D01*
X140649223Y-67650005D01*
X140647874Y-67653262D01*
X140620771Y-67789520D01*
X135793322Y-67789520D01*
X135545100Y-67541299D01*
X135545100Y-62784940D01*
X135580459Y-62784940D01*
X135780418Y-62745166D01*
X135968776Y-62667145D01*
X136138294Y-62553877D01*
X136282457Y-62409714D01*
X136395725Y-62240196D01*
X136473746Y-62051838D01*
X136513520Y-61851879D01*
X136513520Y-61648001D01*
X136473746Y-61448042D01*
X136395725Y-61259684D01*
X136282457Y-61090166D01*
X136138294Y-60946003D01*
X135968776Y-60832735D01*
X135780418Y-60754714D01*
X135610428Y-60720901D01*
X142551200Y-60720901D01*
X142551200Y-60924779D01*
X142590974Y-61124738D01*
X142668995Y-61313096D01*
X142782263Y-61482614D01*
X142826200Y-61526551D01*
X142826201Y-62400948D01*
X142822524Y-62438280D01*
X142826201Y-62475613D01*
X142833910Y-62553877D01*
X142837198Y-62587265D01*
X142880654Y-62730526D01*
X142951226Y-62862556D01*
X142999801Y-62921744D01*
X143046200Y-62978281D01*
X143075198Y-63002079D01*
X144269540Y-64196422D01*
X144293339Y-64225421D01*
X144409064Y-64320394D01*
X144541093Y-64390966D01*
X144684354Y-64434423D01*
X144796007Y-64445420D01*
X144796016Y-64445420D01*
X144833339Y-64449096D01*
X144870662Y-64445420D01*
X148224846Y-64445420D01*
X148237274Y-64507898D01*
X148315295Y-64696256D01*
X148428563Y-64865774D01*
X148572726Y-65009937D01*
X148742244Y-65123205D01*
X148930602Y-65201226D01*
X149130561Y-65241000D01*
X149334439Y-65241000D01*
X149534398Y-65201226D01*
X149722756Y-65123205D01*
X149892274Y-65009937D01*
X150036437Y-64865774D01*
X150149705Y-64696256D01*
X150227726Y-64507898D01*
X150267500Y-64307939D01*
X150267500Y-64104061D01*
X150227726Y-63904102D01*
X150149705Y-63715744D01*
X150116467Y-63666000D01*
X154361399Y-63666000D01*
X155843700Y-65148302D01*
X155843701Y-68783968D01*
X155840024Y-68821300D01*
X155854698Y-68970285D01*
X155898154Y-69113546D01*
X155968726Y-69245576D01*
X156012179Y-69298523D01*
X156063700Y-69361301D01*
X156092698Y-69385099D01*
X156236720Y-69529121D01*
X156236720Y-69591259D01*
X156276494Y-69791218D01*
X156354515Y-69979576D01*
X156467783Y-70149094D01*
X156611946Y-70293257D01*
X156781464Y-70406525D01*
X156969822Y-70484546D01*
X157169781Y-70524320D01*
X157373659Y-70524320D01*
X157573618Y-70484546D01*
X157761976Y-70406525D01*
X157931494Y-70293257D01*
X158075657Y-70149094D01*
X158188925Y-69979576D01*
X158266946Y-69791218D01*
X158306720Y-69591259D01*
X158306720Y-69387381D01*
X158266946Y-69187422D01*
X158188925Y-68999064D01*
X158075657Y-68829546D01*
X157931494Y-68685383D01*
X157761976Y-68572115D01*
X157573618Y-68494094D01*
X157373659Y-68454320D01*
X157363700Y-68454320D01*
X157363700Y-66204479D01*
X159432040Y-66204479D01*
X159432040Y-66408357D01*
X159471814Y-66608316D01*
X159549835Y-66796674D01*
X159663103Y-66966192D01*
X159807266Y-67110355D01*
X159976784Y-67223623D01*
X160165142Y-67301644D01*
X160200384Y-67308654D01*
X160136024Y-67464032D01*
X160096250Y-67663991D01*
X160096250Y-67867869D01*
X160136024Y-68067828D01*
X160214045Y-68256186D01*
X160327313Y-68425704D01*
X160471476Y-68569867D01*
X160640994Y-68683135D01*
X160829352Y-68761156D01*
X161029311Y-68800930D01*
X161233189Y-68800930D01*
X161433148Y-68761156D01*
X161621506Y-68683135D01*
X161754928Y-68593986D01*
X161754928Y-69509000D01*
X161767188Y-69633482D01*
X161803498Y-69753180D01*
X161862463Y-69863494D01*
X161941815Y-69960185D01*
X162038506Y-70039537D01*
X162148820Y-70098502D01*
X162268518Y-70134812D01*
X162393000Y-70147072D01*
X163743000Y-70147072D01*
X163867482Y-70134812D01*
X163987180Y-70098502D01*
X164097494Y-70039537D01*
X164194185Y-69960185D01*
X164273537Y-69863494D01*
X164332502Y-69753180D01*
X164368812Y-69633482D01*
X164381072Y-69509000D01*
X164381072Y-68159000D01*
X164368812Y-68034518D01*
X164332502Y-67914820D01*
X164273537Y-67804506D01*
X164194185Y-67707815D01*
X164100441Y-67630881D01*
X164197473Y-67497629D01*
X164305238Y-67264528D01*
X164335910Y-67163400D01*
X164212224Y-66961000D01*
X163195000Y-66961000D01*
X163195000Y-66981000D01*
X162941000Y-66981000D01*
X162941000Y-66961000D01*
X162921000Y-66961000D01*
X162921000Y-66707000D01*
X162941000Y-66707000D01*
X162941000Y-66687000D01*
X163195000Y-66687000D01*
X163195000Y-66707000D01*
X164212224Y-66707000D01*
X164335910Y-66504600D01*
X164305238Y-66403472D01*
X164197473Y-66170371D01*
X164046303Y-65962773D01*
X163913940Y-65840681D01*
X164085544Y-65669077D01*
X164228907Y-65454518D01*
X164327658Y-65216113D01*
X164378000Y-64963024D01*
X164378000Y-64704976D01*
X164327658Y-64451887D01*
X164228907Y-64213482D01*
X164085544Y-63998923D01*
X163920621Y-63834000D01*
X164085544Y-63669077D01*
X164228907Y-63454518D01*
X164327658Y-63216113D01*
X164378000Y-62963024D01*
X164378000Y-62704976D01*
X164327658Y-62451887D01*
X164228907Y-62213482D01*
X164085544Y-61998923D01*
X163920621Y-61834000D01*
X164085544Y-61669077D01*
X164228907Y-61454518D01*
X164327658Y-61216113D01*
X164378000Y-60963024D01*
X164378000Y-60704976D01*
X164327658Y-60451887D01*
X164228907Y-60213482D01*
X164085544Y-59998923D01*
X163920621Y-59834000D01*
X164085544Y-59669077D01*
X164228907Y-59454518D01*
X164327658Y-59216113D01*
X164378000Y-58963024D01*
X164378000Y-58704976D01*
X164327658Y-58451887D01*
X164228907Y-58213482D01*
X164085544Y-57998923D01*
X163903077Y-57816456D01*
X163688518Y-57673093D01*
X163450113Y-57574342D01*
X163197024Y-57524000D01*
X162938976Y-57524000D01*
X162685887Y-57574342D01*
X162447482Y-57673093D01*
X162232923Y-57816456D01*
X162050456Y-57998923D01*
X161907093Y-58213482D01*
X161808342Y-58451887D01*
X161758000Y-58704976D01*
X161758000Y-58963024D01*
X161808342Y-59216113D01*
X161907093Y-59454518D01*
X162050456Y-59669077D01*
X162215379Y-59834000D01*
X162050456Y-59998923D01*
X161949469Y-60150061D01*
X161857863Y-60199026D01*
X161841789Y-60212218D01*
X161742139Y-60293999D01*
X161718341Y-60322997D01*
X159956038Y-62085301D01*
X159927040Y-62109099D01*
X159903242Y-62138097D01*
X159903241Y-62138098D01*
X159832066Y-62224824D01*
X159761494Y-62356854D01*
X159746578Y-62406027D01*
X159723617Y-62481724D01*
X159718038Y-62500115D01*
X159703364Y-62649100D01*
X159707041Y-62686432D01*
X159707040Y-65602707D01*
X159663103Y-65646644D01*
X159549835Y-65816162D01*
X159471814Y-66004520D01*
X159432040Y-66204479D01*
X157363700Y-66204479D01*
X157363700Y-64870825D01*
X157367376Y-64833500D01*
X157363700Y-64796175D01*
X157363700Y-64796167D01*
X157352703Y-64684514D01*
X157309246Y-64541253D01*
X157238674Y-64409224D01*
X157143701Y-64293499D01*
X157114704Y-64269702D01*
X155240004Y-62395003D01*
X155216201Y-62365999D01*
X155100476Y-62271026D01*
X154968447Y-62200454D01*
X154825186Y-62156997D01*
X154713533Y-62146000D01*
X154713522Y-62146000D01*
X154676200Y-62142324D01*
X154638878Y-62146000D01*
X149685231Y-62146000D01*
X149641294Y-62102063D01*
X149471776Y-61988795D01*
X149283418Y-61910774D01*
X149083459Y-61871000D01*
X148879581Y-61871000D01*
X148679622Y-61910774D01*
X148491264Y-61988795D01*
X148321746Y-62102063D01*
X148177583Y-62246226D01*
X148064315Y-62415744D01*
X147986294Y-62604102D01*
X147946520Y-62804061D01*
X147946520Y-62925420D01*
X145148142Y-62925420D01*
X144346200Y-62123479D01*
X144346200Y-61526551D01*
X144390137Y-61482614D01*
X144503405Y-61313096D01*
X144581426Y-61124738D01*
X144621200Y-60924779D01*
X144621200Y-60720901D01*
X144581426Y-60520942D01*
X144503405Y-60332584D01*
X144390137Y-60163066D01*
X144245974Y-60018903D01*
X144076456Y-59905635D01*
X143888098Y-59827614D01*
X143688139Y-59787840D01*
X143484261Y-59787840D01*
X143284302Y-59827614D01*
X143095944Y-59905635D01*
X142926426Y-60018903D01*
X142782263Y-60163066D01*
X142668995Y-60332584D01*
X142590974Y-60520942D01*
X142551200Y-60720901D01*
X135610428Y-60720901D01*
X135580459Y-60714940D01*
X135376581Y-60714940D01*
X135176622Y-60754714D01*
X134988264Y-60832735D01*
X134818746Y-60946003D01*
X134674583Y-61090166D01*
X134561315Y-61259684D01*
X134483294Y-61448042D01*
X134443520Y-61648001D01*
X134443520Y-61710139D01*
X134274102Y-61879557D01*
X134245099Y-61903359D01*
X134189971Y-61970534D01*
X134150126Y-62019084D01*
X134102012Y-62109099D01*
X134079554Y-62151114D01*
X134036097Y-62294375D01*
X134025100Y-62406028D01*
X134025100Y-62406038D01*
X134021424Y-62443360D01*
X122326000Y-62443360D01*
X122326000Y-61066538D01*
X128074420Y-61066538D01*
X128074420Y-61280182D01*
X128116100Y-61489720D01*
X128197858Y-61687101D01*
X128316552Y-61864740D01*
X128467620Y-62015808D01*
X128645259Y-62134502D01*
X128842640Y-62216260D01*
X129052178Y-62257940D01*
X129265822Y-62257940D01*
X129475360Y-62216260D01*
X129672741Y-62134502D01*
X129850380Y-62015808D01*
X130001448Y-61864740D01*
X130120142Y-61687101D01*
X130201900Y-61489720D01*
X130243580Y-61280182D01*
X130243580Y-61066538D01*
X130201900Y-60857000D01*
X130120142Y-60659619D01*
X130001448Y-60481980D01*
X129850380Y-60330912D01*
X129672741Y-60212218D01*
X129475360Y-60130460D01*
X129265822Y-60088780D01*
X129052178Y-60088780D01*
X128842640Y-60130460D01*
X128645259Y-60212218D01*
X128467620Y-60330912D01*
X128316552Y-60481980D01*
X128197858Y-60659619D01*
X128116100Y-60857000D01*
X128074420Y-61066538D01*
X122326000Y-61066538D01*
X122326000Y-56540000D01*
X167731768Y-56540000D01*
X167501666Y-71496633D01*
G37*
%TD.AperFunction*%
%TD*%
M02*
